<?xml version="1.0" encoding="UTF-8"?>
<svg id="Capa_1" xmlns="http://www.w3.org/2000/svg" version="1.1" viewBox="0 0 110.8 88.9">
  <!-- Generator: Adobe Illustrator 29.8.1, SVG Export Plug-In . SVG Version: 2.1.1 Build 2)  -->
  <defs>
    <style>
      .st0 {
        fill: #fff;
      }
    </style>
  </defs>
  <path class="st0" d="M48.1,1c.9.6,1.6,1.3,1.8,2.4.2,1.6-.4,3.3-2.2,3.8-.7.2-1.4.2-2.1.3-.9.1-1.8.2-2.7.4-.7.2-1.2.9-1.2,1.6,0,.7.5,1.2,1.1,1.4.9.3,1.9.6,2.8.9.4.1.5.1.6,0v-2.9h18.3v2.9c0,.2.2.2.6,0,.9-.3,1.9-.6,2.8-.9.6-.2,1.1-.6,1.1-1.4,0-.6-.5-1.4-1.2-1.6-.9-.2-1.8-.3-2.7-.4-.7-.1-1.4-.1-2.1-.3-1.8-.5-2.4-2.3-2.2-3.8.2-1.1.9-1.8,1.8-2.4.1,0,.2-.1.3-.2,0,0,0,0,0-.1-1.2-.1-2.3-.3-3.5-.4-.1,0-.3.2-.4.3-.8,1.4-1.9,2.1-3.5,2.1h-.4c-1.6,0-2.8-.7-3.6-2.1,0-.1-.3-.3-.4-.3-1.2.1-2.3.3-3.5.4,0,0,0,.1,0,.1.1,0,.2.1.3.2"/>
  <path class="st0" d="M35.9,7c-.1.3-.1.6-.2.9-.2,1,0,1.8.9,2.4.3.2.6.3,1,.5.7.3,1.4.6,1.9,1.1,1.2.9,1.4,2.3,1.4,3.7,0,.7,0,1.4-.1,2.1h5.5v-2.9c0-.1-.1-.2-.2-.3-.5-.7-1.2-.9-2-1.2-.9-.4-1.9-.8-2.8-1.3-.9-.5-1.3-1.8-1.1-2.9.4-1.5,1.4-2.3,2.9-2.6,1-.2,2.1-.2,3.1-.3,1.3-.1,2-.7,2.1-2,0-.8-.3-1.4-1.1-1.7-.8-.3-1.6,0-2,.7-.4.6-.9,1.3-1.4,1.8-1.8,1.7-3.6,1.8-5.5.3-.5-.4-.8-.9-1.2-1.4-.5.2-1,.4-1.5.7.6.7.7,1.5.4,2.4"/>
  <path class="st0" d="M40.8,4.7c1,.1,2.4-1,2.4-2,0-.2,0-.8-.5-.7-1.2.3-2.3.7-3.5,1.1-.3,0-.3.3-.2.6.4.8,1,.9,1.7,1"/>
  <path class="st0" d="M57.1,0c-.5,0-2.8,0-3.3,0,0,1.4,3.3,1.4,3.3,0"/>
  <path class="st0" d="M62.5,4.2c.1,1.3.8,1.8,2.1,2,1,0,2.1.2,3.1.3,1.5.2,2.5,1.1,2.9,2.6.3,1-.2,2.3-1.1,2.9-.9.5-1.8.9-2.8,1.3-.7.3-1.5.5-2,1.2,0,.1-.1.2-.2.3v2.9h5.5c0-.7-.2-1.4-.1-2.1,0-1.4.2-2.8,1.4-3.7.6-.4,1.3-.7,1.9-1.1.3-.2.7-.3,1-.5.9-.6,1.2-1.4.9-2.4,0-.3-.1-.6-.2-.9-.3-.8-.3-1.6.4-2.4-.5-.2-1-.5-1.5-.7-.4.5-.7,1-1.2,1.4-1.9,1.5-3.8,1.3-5.5-.3-.5-.5-1-1.1-1.4-1.8-.4-.6-1.2-1-2-.7-.8.3-1.2.8-1.1,1.7"/>
  <path class="st0" d="M70,4.7c.7,0,1.4-.2,1.7-1,.1-.3,0-.5-.2-.6-1.2-.4-2.3-.8-3.5-1.1-.5-.1-.4.4-.5.7,0,1,1.3,2.1,2.4,2"/>
  <path class="st0" d="M93.1,21.2c-.4,0-.9.2-1.2.4-1,.6-1.1,1.8-.2,2.5.3.3.7.5,1,.8h-6.2c.6-.6,1.3-1,2.1-1.3.2,0,.4,0,.4-.5,0-1.7,1.3-3.3,2.8-3.7-.3-.5-.6-.9-.9-1.3,0,0-.2,0-.3,0-.9.2-1.8.1-2.6-.2-1.3-.6-2.3-1.5-3.1-2.7-.7-1.1-1.5-2.1-2.7-2.8-1.3-.7-3.6.2-3.7,2.1,0,.8.2,1.6.8,2.2,1,1,2.2,1.4,3.6,1.4,1.3,0,2.5.3,3.6,1.1,1.5,1.2,1.3,4-.5,4.8-.7.4-1.5.7-2.2,1h-3.1c.5-.7,1.1-1.1,1.8-1.4.7-.3,1.4-.5,2-.8.6-.3.9-1.1.8-1.8,0-.6-.4-.9-1.2-1-.6-.1-1.3-.2-2-.2-.5,0-1,0-1.5-.2-2.6-.7-4-2.7-4.2-5.3-.2-1.9,1.8-3.9,3.7-3.9,1.8,0,3.4.5,4.6,2,.8,1,1.6,2,2.5,2.9.5.5,1.2.9,2,.8-3.4-4.1-7.4-7.5-12.1-10.2,0,0,0,0-.1,0-.4.3-.5.7-.4,1.2.1.8.3,1.5.3,2.3,0,1.1-.5,1.9-1.4,2.4-.7.4-1.5.8-2.3,1.1-.8.4-1.1,1-1.3,1.8-.3,1.7.4,3.1,1.6,4.3.6.6,1.4,1,2.2,1.3.8.4,1.5.8,2.2,1.3.9.8,1.2,1.9,1.2,3.2h-2.1c0-.6-.2-1.2-.7-1.7-.4-.5-1.4-.7-1.8-.5-.5.2-.7,1.1-.5,2.2h-2.7v-4.7h-9.2v-8.9h-13.2v8.9h-9.2v4.7h-2.7c.3-1.1,0-1.9-.5-2.2-.5-.2-1.4,0-1.8.5-.5.5-.7,1.1-.7,1.7h-2.1c0-1.3.3-2.4,1.2-3.2.6-.6,1.4-1,2.2-1.3.8-.4,1.5-.7,2.2-1.3,1.2-1.2,1.9-2.6,1.6-4.3-.1-.8-.5-1.5-1.3-1.8-.8-.4-1.5-.7-2.3-1.1-1-.5-1.5-1.3-1.4-2.4,0-.8.2-1.5.3-2.3,0-.5,0-.9-.4-1.2,0,0,0,0-.1,0-4.6,2.7-8.7,6.1-12.1,10.2.8,0,1.5-.2,2-.8.9-.9,1.6-2,2.5-2.9,1.2-1.4,2.8-2,4.6-2,1.9,0,3.8,2,3.7,3.9-.2,2.5-1.6,4.5-4.2,5.3-.5.1-1,.2-1.5.2-.7,0-1.3.1-2,.2-.8.1-1.1.4-1.2,1-.1.7.3,1.5.8,1.8.7.3,1.4.5,2,.8.7.3,1.4.6,1.8,1.4h-3c-.8-.2-1.5-.6-2.2-1-1.8-.8-2-3.6-.5-4.8,1.1-.8,2.3-1.1,3.6-1.1,1.4,0,2.6-.4,3.6-1.4.6-.6.9-1.4.8-2.2,0-1.9-2.4-2.7-3.7-2.1-1.2.7-2,1.7-2.7,2.8-.8,1.2-1.8,2.1-3.1,2.7-.8.4-1.7.4-2.6.2-.1,0-.2,0-.3,0-.3.4-.6.9-.9,1.3,1.5.5,2.9,2,2.8,3.7,0,.4.2.4.4.5.8.3,1.5.7,2.1,1.3h-6.2c.4-.3.7-.5,1-.8.9-.7.8-1.9-.2-2.5-.4-.2-.8-.3-1.2-.4-1.6,2.6-2.9,5.4-3.9,8.4.4,0,.7,0,1.1,0h81c.4,0,.7,0,1.1,0-1-2.9-2.3-5.7-3.9-8.4"/>
  <path class="st0" d="M48.1,87.9c.9-.6,1.6-1.3,1.8-2.4.2-1.6-.4-3.3-2.2-3.8-.7-.2-1.4-.2-2.1-.3-.9-.1-1.8-.2-2.7-.4-.7-.2-1.2-.9-1.2-1.6,0-.7.5-1.2,1.1-1.4.9-.3,1.9-.6,2.8-.9.4-.1.5-.1.6,0v2.9h18.3v-2.9c0-.2.2-.2.6,0,.9.3,1.9.6,2.8.9.6.2,1.1.6,1.1,1.4,0,.6-.5,1.4-1.2,1.6-.9.2-1.8.3-2.7.4-.7.1-1.4.1-2.1.3-1.8.5-2.4,2.3-2.2,3.8.2,1.1.9,1.8,1.8,2.4.1,0,.2.1.3.2,0,0,0,0,0,.1-1.2.1-2.3.3-3.5.4-.1,0-.3-.2-.4-.3-.8-1.4-1.9-2.1-3.5-2.1h-.4c-1.6,0-2.8.7-3.6,2.1,0,.1-.3.3-.4.3-1.2-.1-2.3-.3-3.5-.4,0,0,0-.1,0-.1.1,0,.2-.1.3-.2"/>
  <path class="st0" d="M35.9,81.9c-.1-.3-.1-.6-.2-.9-.2-1,0-1.8.9-2.4.3-.2.6-.3,1-.5.7-.3,1.4-.6,1.9-1.1,1.2-.9,1.4-2.3,1.4-3.7,0-.7,0-1.4-.1-2.1h5.5v2.9c0,.1-.1.2-.2.3-.5.7-1.2.9-2,1.2-.9.4-1.9.8-2.8,1.3-.9.5-1.3,1.8-1.1,2.9.4,1.5,1.4,2.3,2.9,2.6,1,.2,2.1.2,3.1.3,1.3.1,2,.7,2.1,2,0,.8-.3,1.4-1.1,1.7-.8.3-1.6,0-2-.7-.4-.6-.9-1.3-1.4-1.8-1.8-1.7-3.6-1.8-5.5-.3-.5.4-.8.9-1.2,1.4-.5-.2-1-.4-1.5-.7.6-.7.7-1.5.4-2.4"/>
  <path class="st0" d="M40.8,84.2c1-.1,2.4,1,2.4,2,0,.2,0,.8-.5.7-1.2-.3-2.3-.7-3.5-1.1-.3,0-.3-.3-.2-.6.4-.8,1-.9,1.7-1"/>
  <path class="st0" d="M57.1,88.9c-.5,0-2.8,0-3.3,0,0-1.4,3.3-1.4,3.3,0"/>
  <path class="st0" d="M62.5,84.7c.1-1.3.8-1.8,2.1-2,1,0,2.1-.2,3.1-.3,1.5-.2,2.5-1.1,2.9-2.6.3-1-.2-2.3-1.1-2.9-.9-.5-1.8-.9-2.8-1.3-.7-.3-1.5-.5-2-1.2,0-.1-.1-.2-.2-.3v-2.9h5.5c0,.7-.2,1.4-.1,2.1,0,1.4.2,2.8,1.4,3.7.6.4,1.3.7,1.9,1.1.3.2.7.3,1,.5.9.6,1.2,1.4.9,2.4,0,.3-.1.6-.2.9-.3.8-.3,1.6.4,2.4-.5.2-1,.5-1.5.7-.4-.5-.7-1-1.2-1.4-1.9-1.5-3.8-1.3-5.5.3-.5.5-1,1.1-1.4,1.8-.4.6-1.2,1-2,.7-.8-.3-1.2-.8-1.1-1.7"/>
  <path class="st0" d="M70,84.2c.7,0,1.4.2,1.7,1,.1.3,0,.5-.2.6-1.2.4-2.3.8-3.5,1.1-.5.1-.4-.4-.5-.7,0-1,1.3-2.1,2.4-2"/>
  <path class="st0" d="M93.1,67.7c-.4,0-.9-.2-1.2-.4-1-.6-1.1-1.8-.2-2.5.3-.3.7-.5,1-.8h-6.2c.6.6,1.3,1,2.1,1.3.2,0,.4,0,.4.5,0,1.7,1.3,3.3,2.8,3.7-.3.5-.6.9-.9,1.3,0,0-.2,0-.3,0-.9-.2-1.8-.1-2.6.2-1.3.6-2.3,1.5-3.1,2.7-.7,1.1-1.5,2.1-2.7,2.8-1.3.7-3.6-.2-3.7-2.1,0-.8.2-1.6.8-2.2,1-1,2.2-1.4,3.6-1.4,1.3,0,2.5-.3,3.6-1.1,1.5-1.2,1.3-4-.5-4.8-.7-.4-1.5-.7-2.2-1h-3.1c.5.7,1.1,1.1,1.8,1.4.7.3,1.4.5,2,.8.6.3.9,1.1.8,1.8,0,.6-.4.9-1.2,1-.6.1-1.3.2-2,.2-.5,0-1,0-1.5.2-2.6.7-4,2.7-4.2,5.3-.2,1.9,1.8,3.9,3.7,3.9,1.8,0,3.4-.5,4.6-2,.8-1,1.6-2,2.5-2.9.5-.5,1.2-.9,2-.8-3.4,4.1-7.4,7.5-12.1,10.2,0,0,0,0-.1,0-.4-.3-.5-.7-.4-1.2.1-.8.3-1.5.3-2.3,0-1.1-.5-1.9-1.4-2.4-.7-.4-1.5-.8-2.3-1.1-.8-.4-1.1-1-1.3-1.8-.3-1.7.4-3.1,1.6-4.3.6-.6,1.4-1,2.2-1.3.8-.4,1.5-.8,2.2-1.3.9-.8,1.2-1.9,1.2-3.2h-2.1c0,.6-.2,1.2-.7,1.7-.4.5-1.4.7-1.8.5-.5-.2-.7-1.1-.5-2.2h-2.7v4.7h-9.2v8.9h-13.2v-8.9h-9.2v-4.7h-2.7c.3,1.1,0,1.9-.5,2.2-.5.2-1.4,0-1.8-.5-.5-.5-.7-1.1-.7-1.7h-2.1c0,1.3.3,2.4,1.2,3.2.6.6,1.4,1,2.2,1.3.8.4,1.5.7,2.2,1.3,1.2,1.2,1.9,2.6,1.6,4.3-.1.8-.5,1.5-1.3,1.8-.8.4-1.5.7-2.3,1.1-1,.5-1.5,1.3-1.4,2.4,0,.8.2,1.5.3,2.3,0,.5,0,.9-.4,1.2,0,0,0,0-.1,0-4.6-2.7-8.7-6.1-12.1-10.2.8,0,1.5.2,2,.8.9.9,1.6,2,2.5,2.9,1.2,1.4,2.8,2,4.6,2,1.9,0,3.8-2,3.7-3.9-.2-2.5-1.6-4.5-4.2-5.3-.5-.1-1-.2-1.5-.2-.7,0-1.3-.1-2-.2-.8-.1-1.1-.4-1.2-1-.1-.7.3-1.5.8-1.8.7-.3,1.4-.5,2-.8.7-.3,1.4-.6,1.8-1.4h-3c-.8.2-1.5.6-2.2,1-1.8.8-2,3.6-.5,4.8,1.1.8,2.3,1.1,3.6,1.1,1.4,0,2.6.4,3.6,1.4.6.6.9,1.4.8,2.2,0,1.9-2.4,2.7-3.7,2.1-1.2-.7-2-1.7-2.7-2.8-.8-1.2-1.8-2.1-3.1-2.7-.8-.4-1.7-.4-2.6-.2-.1,0-.2,0-.3,0-.3-.4-.6-.9-.9-1.3,1.5-.5,2.9-2,2.8-3.7,0-.4.2-.4.4-.5.8-.3,1.5-.7,2.1-1.3h-6.2c.4.3.7.5,1,.8.9.7.8,1.9-.2,2.5-.4.2-.8.3-1.2.4-1.6-2.6-2.9-5.4-3.9-8.4.4,0,.7,0,1.1,0h81c.4,0,.7,0,1.1,0-1,2.9-2.3,5.7-3.9,8.4"/>
  <path class="st0" d="M42.7,34.1h-3.6v12.6h-12.1v-12.6h-3.6v20.8h19.3v-20.8ZM39.2,51.3h-12.1v-1.1h12.1v1.1Z"/>
  <rect class="st0" x="31.2" y="39.6" width="3.8" height="3.6"/>
  <polygon class="st0" points="20.3 34.1 16.7 34.1 0 50.2 0 54.9 3.6 54.9 3.6 51.7 7.5 48 9.5 51.2 9.5 54.9 13.1 54.9 13.1 50.2 10.1 45.4 16.7 39.1 16.7 50.2 20.3 50.2 20.3 34.1 20.3 34.1 20.3 34.1"/>
  <path class="st0" d="M68.1,34.1h0v20.8h3.6v-12.6h12.1v12.6h3.6v-20.8h-19.3ZM71.7,37.6h12.1v1.1h-12.1v-1.1Z"/>
  <rect class="st0" x="75.9" y="45.8" width="3.8" height="3.6"/>
  <polygon class="st0" points="90.6 54.9 90.6 38.7 94.1 38.7 94.1 49.9 100.8 43.5 97.7 38.7 97.7 34.1 101.3 34.1 101.3 37.7 103.4 41 107.3 37.2 107.3 34.1 110.8 34.1 110.8 38.7 94.1 54.9 90.6 54.9 90.6 54.9"/>
  <polygon class="st0" points="61.7 34.1 61.7 46.1 57.2 46.1 57.2 39.3 49.2 39.2 49.2 34.1 45.6 34.1 45.6 54.9 49.2 54.9 49.2 42.8 53.6 42.8 53.6 49.7 61.7 49.7 61.7 54.9 65.2 54.9 65.2 34.1 61.7 34.1"/>
</svg>