<?xml version="1.0" encoding="UTF-8"?>
<svg id="Capa_1" xmlns="http://www.w3.org/2000/svg" version="1.1" viewBox="0 0 112 88.7">
  <!-- Generator: Adobe Illustrator 29.8.1, SVG Export Plug-In . SVG Version: 2.1.1 Build 2)  -->
  <defs>
    <style>
      .st0 {
        fill: #fff;
      }
    </style>
  </defs>
  <path class="st0" d="M50.7,12.9c.7.4,1.2.9,1.3,1.7.2,1.1-.3,2.4-1.6,2.8-.5.1-1,.2-1.5.2-.7,0-1.3.1-1.9.3-.5.1-.9.7-.9,1.1,0,.5.4.8.8,1,.7.2,1.3.4,2,.7.3,0,.4,0,.4,0v-2.1h13.3v2.1c0,.2.2.1.4,0,.7-.2,1.3-.4,2-.7.5-.2.8-.5.8-1,0-.5-.4-1-.9-1.1-.6-.2-1.3-.2-1.9-.3-.5,0-1-.1-1.5-.2-1.3-.4-1.8-1.6-1.6-2.8.1-.8.7-1.3,1.3-1.7,0,0,.1,0,.2-.1,0,0,0,0,0,0-.8-.1-1.7-.2-2.5-.3,0,0-.2.1-.3.2-.6,1-1.4,1.5-2.5,1.5h-.3c-1.1,0-2-.5-2.6-1.5,0-.1-.2-.2-.3-.2-.9,0-1.7.2-2.5.3,0,0,0,0,0,0,0,0,.1,0,.2.1"/>
  <path class="st0" d="M41.9,17.2c0,.2-.1.4-.2.6-.2.8,0,1.3.7,1.7.2.1.5.2.7.3.5.2,1,.5,1.4.8.9.7,1,1.7,1,2.7,0,.5,0,1,0,1.5h4v-2.1c0,0,0-.2-.1-.2-.3-.5-.9-.6-1.4-.9-.7-.3-1.4-.5-2-.9-.7-.4-1-1.3-.8-2.1.3-1.1,1-1.7,2.1-1.9.7-.1,1.5-.2,2.2-.2,1,0,1.4-.5,1.5-1.4,0-.6-.2-1-.8-1.2-.6-.2-1.1,0-1.4.5-.3.5-.6.9-1,1.3-1.3,1.2-2.6,1.3-4,.2-.3-.3-.6-.7-.9-1-.3.2-.7.3-1.1.5.5.5.5,1.1.3,1.7"/>
  <path class="st0" d="M45.4,15.5c.8,0,1.7-.7,1.7-1.5,0-.2,0-.6-.3-.5-.9.2-1.7.5-2.5.8-.2,0-.2.2-.1.4.3.5.7.7,1.3.7"/>
  <path class="st0" d="M57.2,12.1c-.4,0-2,0-2.4,0,0,1,2.4,1,2.4,0"/>
  <path class="st0" d="M61.2,15.2c0,.9.6,1.3,1.5,1.4.7,0,1.5.1,2.2.2,1.1.2,1.8.8,2.1,1.9.2.7-.1,1.7-.8,2.1-.6.4-1.3.6-2,.9-.5.2-1.1.3-1.4.9,0,0-.1.2-.1.2v2.1h4c0-.5-.1-1,0-1.5,0-1,.1-2,1-2.7.4-.3.9-.5,1.4-.8.2-.1.5-.2.7-.3.6-.4.8-1,.7-1.7,0-.2,0-.4-.2-.6-.2-.6-.2-1.2.3-1.7-.4-.2-.8-.3-1.1-.5-.3.4-.5.8-.9,1-1.4,1.1-2.7,1-4-.2-.4-.4-.7-.8-1-1.3-.3-.5-.9-.7-1.4-.5-.6.2-.8.6-.8,1.2"/>
  <path class="st0" d="M66.6,15.5c.5,0,1-.2,1.3-.7,0-.2,0-.4-.1-.4-.8-.3-1.7-.6-2.5-.8-.4,0-.3.3-.3.5,0,.7,1,1.5,1.7,1.5"/>
  <path class="st0" d="M83.3,27.5c-.3,0-.6.1-.9.3-.7.4-.8,1.3-.1,1.8.2.2.5.4.7.6h-4.5c.4-.5,1-.7,1.5-1,.1,0,.3,0,.3-.3,0-1.2.9-2.4,2-2.7-.2-.3-.4-.6-.7-1,0,0-.1,0-.2,0-.6.1-1.3,0-1.9-.2-1-.4-1.7-1.1-2.3-2-.5-.8-1.1-1.5-2-2-.9-.5-2.6.1-2.6,1.5,0,.6.2,1.1.6,1.6.7.7,1.6,1,2.6,1,1,0,1.8.2,2.6.8,1.1.9.9,2.9-.4,3.5-.5.3-1.1.5-1.6.7h-2.2c.3-.5.8-.8,1.3-1,.5-.2,1-.4,1.5-.6.4-.2.7-.8.6-1.3,0-.4-.3-.6-.9-.7-.5,0-.9-.1-1.4-.2-.4,0-.7,0-1.1-.2-1.9-.5-2.9-2-3.1-3.8-.1-1.4,1.3-2.8,2.7-2.8,1.3,0,2.5.4,3.3,1.4.6.7,1.1,1.5,1.8,2.1.4.4.9.6,1.5.6-2.4-3-5.4-5.5-8.7-7.4,0,0,0,0,0,0-.3.2-.4.5-.3.9,0,.6.2,1.1.2,1.7,0,.8-.4,1.4-1,1.7-.5.3-1.1.5-1.6.8-.6.3-.8.7-.9,1.3-.2,1.3.3,2.3,1.1,3.1.4.5,1,.7,1.6,1,.6.3,1.1.6,1.6,1,.7.6.9,1.4.8,2.3h-1.6c0-.5-.2-.9-.5-1.2-.3-.3-1-.5-1.3-.3-.3.2-.5.8-.3,1.6h-2v-3.4h-6.7v-6.4h-9.6v6.4h-6.7v3.4h-2c.2-.8,0-1.4-.3-1.6-.3-.2-1,0-1.3.3-.4.4-.5.8-.5,1.2h-1.6c0-.9.2-1.7.8-2.3.4-.4,1-.7,1.6-1,.6-.3,1.1-.5,1.6-1,.9-.9,1.3-1.9,1.1-3.1,0-.6-.4-1.1-.9-1.3-.6-.3-1.1-.5-1.6-.8-.7-.4-1.1-1-1-1.7,0-.6.2-1.1.2-1.7,0-.4,0-.7-.3-.9,0,0,0,0,0,0-3.3,1.9-6.3,4.4-8.7,7.4.6,0,1.1-.2,1.5-.6.6-.7,1.2-1.4,1.8-2.1.9-1,2-1.5,3.3-1.4,1.4,0,2.8,1.5,2.7,2.8-.1,1.8-1.1,3.3-3.1,3.8-.4.1-.7.1-1.1.2-.5,0-.9,0-1.4.2-.6,0-.8.3-.9.7,0,.5.2,1.1.6,1.3.5.2,1,.4,1.5.6.5.2,1,.5,1.3,1h-2.2c-.6-.2-1.1-.5-1.6-.7-1.3-.6-1.5-2.6-.4-3.5.8-.6,1.6-.8,2.6-.8,1,0,1.9-.3,2.6-1,.4-.4.6-1,.6-1.6,0-1.4-1.7-2-2.6-1.5-.9.5-1.5,1.2-2,2-.6.9-1.3,1.5-2.3,2-.6.3-1.3.3-1.9.2,0,0-.1,0-.2,0-.2.3-.5.6-.7,1,1.1.3,2.1,1.5,2,2.7,0,.3.2.3.3.3.6.2,1.1.5,1.5,1h-4.5c.3-.2.5-.4.7-.6.6-.5.6-1.4-.1-1.8-.3-.1-.6-.2-.9-.3-1.1,1.9-2.1,3.9-2.8,6.1.3,0,.5,0,.8,0h58.6c.3,0,.5,0,.8,0-.7-2.1-1.7-4.2-2.8-6.1"/>
  <path class="st0" d="M50.7,75.8c.7-.4,1.2-.9,1.3-1.7.2-1.1-.3-2.4-1.6-2.8-.5-.1-1-.2-1.5-.2-.7,0-1.3-.1-1.9-.3-.5-.1-.9-.7-.9-1.1,0-.5.4-.8.8-1,.7-.2,1.3-.4,2-.7.3,0,.4,0,.4,0v2.1h13.3v-2.1c0-.2.2-.1.4,0,.7.2,1.3.4,2,.7.5.2.8.5.8,1,0,.5-.4,1-.9,1.1-.6.2-1.3.2-1.9.3-.5,0-1,.1-1.5.2-1.3.4-1.8,1.6-1.6,2.8.1.8.7,1.3,1.3,1.7,0,0,.1,0,.2.1,0,0,0,0,0,0-.8.1-1.7.2-2.5.3,0,0-.2-.1-.3-.2-.6-1-1.4-1.5-2.5-1.5h-.3c-1.1,0-2,.5-2.6,1.5,0,.1-.2.2-.3.2-.9,0-1.7-.2-2.5-.3,0,0,0,0,0,0,0,0,.1,0,.2-.1"/>
  <path class="st0" d="M41.9,71.5c0-.2-.1-.4-.2-.6-.2-.8,0-1.3.7-1.7.2-.1.5-.2.7-.3.5-.2,1-.5,1.4-.8.9-.7,1-1.7,1-2.7,0-.5,0-1,0-1.5h4v2.1c0,0,0,.2-.1.2-.3.5-.9.6-1.4.9-.7.3-1.4.5-2,.9-.7.4-1,1.3-.8,2.1.3,1.1,1,1.7,2.1,1.9.7.1,1.5.2,2.2.2,1,0,1.4.5,1.5,1.4,0,.6-.2,1-.8,1.2-.6.2-1.1,0-1.4-.5-.3-.5-.6-.9-1-1.3-1.3-1.2-2.6-1.3-4-.2-.3.3-.6.7-.9,1-.3-.2-.7-.3-1.1-.5.5-.5.5-1.1.3-1.7"/>
  <path class="st0" d="M45.4,73.1c.8,0,1.7.7,1.7,1.5,0,.2,0,.6-.3.5-.9-.2-1.7-.5-2.5-.8-.2,0-.2-.2-.1-.4.3-.5.7-.7,1.3-.7"/>
  <path class="st0" d="M57.2,76.5c-.4,0-2,0-2.4,0,0-1,2.4-1,2.4,0"/>
  <path class="st0" d="M61.2,73.5c0-.9.6-1.3,1.5-1.4.7,0,1.5-.1,2.2-.2,1.1-.2,1.8-.8,2.1-1.9.2-.7-.1-1.7-.8-2.1-.6-.4-1.3-.6-2-.9-.5-.2-1.1-.3-1.4-.9,0,0-.1-.2-.1-.2v-2.1h4c0,.5-.1,1,0,1.5,0,1,.1,2,1,2.7.4.3.9.5,1.4.8.2.1.5.2.7.3.6.4.8,1,.7,1.7,0,.2,0,.4-.2.6-.2.6-.2,1.2.3,1.7-.4.2-.8.3-1.1.5-.3-.4-.5-.8-.9-1-1.4-1.1-2.7-1-4,.2-.4.4-.7.8-1,1.3-.3.5-.9.7-1.4.5-.6-.2-.8-.6-.8-1.2"/>
  <path class="st0" d="M66.6,73.1c.5,0,1,.2,1.3.7,0,.2,0,.4-.1.4-.8.3-1.7.6-2.5.8-.4,0-.3-.3-.3-.5,0-.7,1-1.5,1.7-1.5"/>
  <path class="st0" d="M83.3,61.2c-.3,0-.6-.1-.9-.3-.7-.4-.8-1.3-.1-1.8.2-.2.5-.4.7-.6h-4.5c.4.5,1,.7,1.5,1,.1,0,.3,0,.3.3,0,1.2.9,2.4,2,2.7-.2.3-.4.6-.7,1,0,0-.1,0-.2,0-.6-.1-1.3,0-1.9.2-1,.4-1.7,1.1-2.3,2-.5.8-1.1,1.5-2,2-.9.5-2.6-.1-2.6-1.5,0-.6.2-1.1.6-1.6.7-.7,1.6-1,2.6-1,1,0,1.8-.2,2.6-.8,1.1-.9.9-2.9-.4-3.5-.5-.3-1.1-.5-1.6-.7h-2.2c.3.5.8.8,1.3,1,.5.2,1,.4,1.5.6.4.2.7.8.6,1.3,0,.4-.3.6-.9.7-.5,0-.9.1-1.4.2-.4,0-.7,0-1.1.2-1.9.5-2.9,2-3.1,3.8-.1,1.4,1.3,2.8,2.7,2.8,1.3,0,2.5-.4,3.3-1.4.6-.7,1.1-1.5,1.8-2.1.4-.4.9-.6,1.5-.6-2.4,3-5.4,5.5-8.7,7.4,0,0,0,0,0,0-.3-.2-.4-.5-.3-.9,0-.6.2-1.1.2-1.7,0-.8-.4-1.4-1-1.7-.5-.3-1.1-.5-1.6-.8-.6-.3-.8-.7-.9-1.3-.2-1.3.3-2.3,1.1-3.1.4-.5,1-.7,1.6-1,.6-.3,1.1-.6,1.6-1,.7-.6.9-1.4.8-2.3h-1.6c0,.5-.2.9-.5,1.2-.3.3-1,.5-1.3.3-.3-.2-.5-.8-.3-1.6h-2v3.4h-6.7v6.4h-9.6v-6.4h-6.7v-3.4h-2c.2.8,0,1.4-.3,1.6-.3.2-1,0-1.3-.3-.4-.4-.5-.8-.5-1.2h-1.6c0,.9.2,1.7.8,2.3.4.4,1,.7,1.6,1,.6.3,1.1.5,1.6,1,.9.9,1.3,1.9,1.1,3.1,0,.6-.4,1.1-.9,1.3-.6.3-1.1.5-1.6.8-.7.4-1.1,1-1,1.7,0,.6.2,1.1.2,1.7,0,.4,0,.7-.3.9,0,0,0,0,0,0-3.3-1.9-6.3-4.4-8.7-7.4.6,0,1.1.2,1.5.6.6.7,1.2,1.4,1.8,2.1.9,1,2,1.5,3.3,1.4,1.4,0,2.8-1.5,2.7-2.8-.1-1.8-1.1-3.3-3.1-3.8-.4-.1-.7-.1-1.1-.2-.5,0-.9,0-1.4-.2-.6,0-.8-.3-.9-.7,0-.5.2-1.1.6-1.3.5-.2,1-.4,1.5-.6.5-.2,1-.5,1.3-1h-2.2c-.6.2-1.1.5-1.6.7-1.3.6-1.5,2.6-.4,3.5.8.6,1.6.8,2.6.8,1,0,1.9.3,2.6,1,.4.4.6,1,.6,1.6,0,1.4-1.7,2-2.6,1.5-.9-.5-1.5-1.2-2-2-.6-.9-1.3-1.5-2.3-2-.6-.3-1.3-.3-1.9-.2,0,0-.1,0-.2,0-.2-.3-.5-.6-.7-1,1.1-.3,2.1-1.5,2-2.7,0-.3.2-.3.3-.3.6-.2,1.1-.5,1.5-1h-4.5c.3.2.5.4.7.6.6.5.6,1.4-.1,1.8-.3.1-.6.2-.9.3-1.1-1.9-2.1-3.9-2.8-6.1.3,0,.5,0,.8,0h58.6c.3,0,.5,0,.8,0-.7,2.1-1.7,4.2-2.8,6.1"/>
  <path class="st0" d="M46.8,36.8h-2.6v9.1h-8.8v-9.1h-2.6v15.1h14v-15.1ZM44.2,49.3h-8.8v-.8h8.8v.8Z"/>
  <rect class="st0" x="38.5" y="40.8" width="2.7" height="2.6"/>
  <polygon class="st0" points="30.5 36.8 28 36.8 15.9 48.5 15.9 51.9 18.5 51.9 18.5 49.6 21.3 46.9 22.8 49.2 22.8 51.9 25.4 51.9 25.4 48.5 23.2 45 28 40.4 28 48.5 30.5 48.5 30.5 36.8 30.5 36.8 30.5 36.8"/>
  <path class="st0" d="M65.2,36.8h0v15.1h2.6v-9.1h8.8v9.1h2.6v-15.1h-14ZM67.8,39.4h8.8v.8h-8.8v-.8Z"/>
  <rect class="st0" x="70.8" y="45.3" width="2.7" height="2.6"/>
  <polygon class="st0" points="81.5 51.9 81.5 40.2 84 40.2 84 48.2 88.8 43.6 86.6 40.2 86.6 36.8 89.2 36.8 89.2 39.4 90.7 41.8 93.5 39.1 93.5 36.8 96.1 36.8 96.1 40.2 84 51.9 81.5 51.9 81.5 51.9"/>
  <polygon class="st0" points="60.5 36.8 60.5 45.5 57.3 45.5 57.3 40.6 51.5 40.6 51.5 36.8 48.9 36.8 48.9 51.9 51.5 51.9 51.5 43.1 54.7 43.1 54.7 48.1 60.5 48.1 60.5 51.9 63.1 51.9 63.1 36.8 60.5 36.8"/>
</svg>